# xmcd CD database file
#
# Track frame offsets:
#	150
#	13749
#	27934
#	37441
#	48066
#	65082
#	78634
#	90689
#	101716
#	112200
#	123303
#	135633
#	146578
#	156382
#	168173
#	178367
#	188865
#	200636
#	213236
#	226089
#	236865
#
# Disc length: 3337 seconds
#
# Revision: 10
# Processed by: cddbd v1.5.2PL0 Copyright (c) Steve Scherf et al.
# Submitted via: CDex 1.70beta2
#
DISCID=3a0d0715
DTITLE=Buck Owens - The Buck Owens Collection  -  Disc 3
DYEAR=1992
DGENRE=Country
TTITLE0=Tall Dark Stranger
TTITLE1=Big In Vegas
TTITLE2=We're Gonna Get Together [with Susan Raye]
TTITLE3=The Kansas City Song
TTITLE4=The Great White Horse [with Susan Raye]
TTITLE5=I Wouldn't Live In New York City (If They Gave Me The Whole Dang Town)
TTITLE6=Bridge Over Troubled Water
TTITLE7=Ruby (Are You Mad)
TTITLE8=Rollin' In My Sweet Baby's Arms
TTITLE9=I'll Still Be Waiting For You
TTITLE10=Made In Japan
TTITLE11=You Ain't Gonna Have Ol' Buck To Kick Around No More
TTITLE12=Ain't It Amazing, Gracie
TTITLE13=Streets Of Bakersfield
TTITLE14=Big Game Hunter
TTITLE15=On The Cover Of The Music City News
TTITLE16=(It's A) Monsters' Holiday
TTITLE17=Play Together Again Again [with Emmylou Harris]
TTITLE18=Streets Of Bakersfield [with Dwight Yoakam]
TTITLE19=Hot Dog
TTITLE20=Act Naturally [with Ringo Starr]
EXTD=YEAR: 1992
EXTT0=
EXTT1=
EXTT2=
EXTT3=
EXTT4=
EXTT5=
EXTT6=
EXTT7=
EXTT8=
EXTT9=
EXTT10=
EXTT11=
EXTT12=
EXTT13=
EXTT14=
EXTT15=
EXTT16=
EXTT17=
EXTT18=
EXTT19=
EXTT20=
PLAYORDER=
